<svg width="33" height="23" viewBox="0 0 33 23" fill="none" xmlns="http://www.w3.org/2000/svg">
<path d="M16.5 22.9978C13.7938 23.0314 11.1156 22.4499 8.6691 21.2977C6.77274 20.3766 5.06988 19.1045 3.65145 17.5493C2.14901 15.9414 0.966021 14.0648 0.165 12.0187L0 11.4996L0.17325 10.9805C0.974845 8.93621 2.15529 7.06008 3.6531 5.44989C5.07101 3.89486 6.77331 2.62274 8.6691 1.70146C11.1156 0.549323 13.7938 -0.0321221 16.5 0.0013689C19.2062 -0.0320643 21.8844 0.549378 24.3309 1.70146C26.2273 2.62253 27.9302 3.89466 29.3486 5.44989C30.8538 7.05563 32.0372 8.93281 32.835 10.9805L33 11.4996L32.8268 12.0187C30.2383 18.7267 23.7174 23.1117 16.5 22.9978ZM16.5 3.28658C10.8832 3.11136 5.72784 6.36662 3.49305 11.4996C5.72748 16.6329 10.8831 19.8883 16.5 19.7126C22.1167 19.8874 27.2718 16.6323 29.5069 11.4996C27.2751 6.36413 22.1178 3.10766 16.5 3.28658ZM16.5 16.4274C14.1196 16.4431 12.0605 14.7805 11.5846 12.4585C11.1087 10.1365 12.349 7.80378 14.5454 6.8899C16.7417 5.97602 19.2806 6.73627 20.6061 8.70472C21.9316 10.6732 21.6734 13.3 19.9897 14.9754C19.0679 15.9038 17.8113 16.4267 16.5 16.4274Z" fill="#CC0819"/>
</svg>
